<svg width="67" height="48" viewBox="0 0 67 48" fill="none" xmlns="http://www.w3.org/2000/svg">
<path d="M30.2879 1.09375C29.3762 1.19462 27.3503 1.59807 26.6412 1.7998C21.0699 3.51452 10.4336 8.25524 9.52197 21.6705C9.52197 21.6705 9.82587 29.8406 18.6387 32.1605C18.6387 32.1605 13.1687 22.6791 22.7919 16.1228C22.7919 16.1228 23.3997 21.8722 26.5399 23.2843C26.5399 23.2843 26.6412 15.1141 30.3892 12.189C30.3892 12.189 29.275 16.9297 33.1243 17.8376C36.9736 18.7453 44.976 16.9297 48.4202 10.3734C51.6616 4.42232 37.2774 0.185955 30.2879 1.09375Z" fill="#393D60"/>
<path d="M22.3867 0.0850842C5.16616 -1.12531 0 10.9786 0 10.9786C5.97653 8.75958 8.40768 12.5925 8.40768 12.5925C12.3583 4.32148 22.3867 0.0850842 22.3867 0.0850842Z" fill="#393D60"/>
<path d="M26.9451 34.3796C16.714 38.4143 9.11676 28.3276 9.11676 28.3276C9.11676 28.3276 12.0544 48.2992 34.0359 47.9966C34.0359 47.9966 30.6931 44.0628 30.1866 43.3567C29.5788 42.4489 26.9451 42.0455 26.9451 42.0455C26.9451 42.0455 29.3762 41.7429 30.4905 38.4143C31.6048 35.0857 37.5813 34.3796 40.8228 35.4892C40.9241 35.59 37.1761 30.345 26.9451 34.3796Z" fill="#393D60"/>
<path d="M59.4167 40.4167L63.75 44.75M44.25 33.9167C44.25 36.2152 45.1631 38.4196 46.7884 40.0449C48.4137 41.6702 50.6181 42.5833 52.9167 42.5833C55.2152 42.5833 57.4196 41.6702 59.0449 40.0449C60.6702 38.4196 61.5833 36.2152 61.5833 33.9167C61.5833 31.6181 60.6702 29.4137 59.0449 27.7884C57.4196 26.1631 55.2152 25.25 52.9167 25.25C50.6181 25.25 48.4137 26.1631 46.7884 27.7884C45.1631 29.4137 44.25 31.6181 44.25 33.9167Z" stroke="#393D60" stroke-width="3" stroke-linecap="round" stroke-linejoin="round"/>
</svg>
