<svg xmlns="http://www.w3.org/2000/svg" xmlns:xlink="http://www.w3.org/1999/xlink" fill="none" version="1.1" width="99" height="59" viewBox="0 0 99 59"><defs><radialGradient cx="0" cy="0" r="1" gradientUnits="userSpaceOnUse" id="master_svg0_10_05521" gradientTransform="translate(52.26300242861089 26.66804525256157) rotate(127.33111286342148) scale(37.82535312072861 37.74436113525891)"><stop offset="71.97312116622925%" stop-color="#3355C7" stop-opacity="0"/><stop offset="100%" stop-color="#3355C7" stop-opacity="1"/></radialGradient><linearGradient x1="1.0192630290985107" y1="0.7386457920074463" x2="-0.01405760052179119" y2="0.666727431831627" id="master_svg1_10_05695"><stop offset="0%" stop-color="#3355C7" stop-opacity="0"/><stop offset="52.14285850524902%" stop-color="#3355C7" stop-opacity="0.10000000149011612"/><stop offset="100%" stop-color="#3355C7" stop-opacity="0.05000000074505806"/></linearGradient><linearGradient x1="0.9845916032791138" y1="0.7011891603469849" x2="-0.005755249875669446" y2="0.6670744715451885" id="master_svg2_10_05791"><stop offset="0%" stop-color="#3355C7" stop-opacity="0"/><stop offset="47.14285731315613%" stop-color="#3355C7" stop-opacity="0.4000000059604645"/><stop offset="100%" stop-color="#3355C7" stop-opacity="0"/></linearGradient></defs><g><g style="opacity:0.30000001192092896;"><ellipse cx="49.2978458404541" cy="29.5" rx="29.43683433532715" ry="29.5" fill="url(#master_svg0_10_05521)" fill-opacity="1"/></g><g><path d="M98.907295,36.237068375Q98.626411,37.976085375,97.508949,39.549032374999996Q97.186157,40.003395375,96.795074,40.440891375Q96.403992,40.878383375,95.94574,41.297752375Q95.48748,41.717125375,94.963364,42.117172375Q94.439247,42.517215375,93.850769,42.896793375Q93.262299,43.276371375,92.611145,43.634391375Q91.959999,43.992412375,91.248047,44.327850375Q90.536087,44.663292375,89.765366,44.975185375Q88.994629,45.287078375,88.167343,45.574539375Q87.340065,45.861999375,86.458588,46.124199375Q85.577118,46.386398375,84.643967,46.622585375Q83.710823,46.858772375,82.728683,47.068271375Q81.746552,47.277771375,80.718231,47.459987375Q79.689911,47.642200375,78.618362,47.796608375Q77.546814,47.951011375,76.435097,48.077163375Q75.32338,48.203315375,74.174683,48.300857375Q73.025978,48.398395375,71.843582,48.467041375Q72.942101,47.155639375,73.881844,45.725681375Q75.170609,45.536049375,76.367256,45.295559375Q77.563904,45.055069375,78.659897,44.765430375Q79.75589,44.475795375,80.743393,44.139091375Q81.730888,43.802383375,82.602829,43.421009375Q83.474777,43.039638375,84.22493,42.616325375Q84.97509,42.193016375,85.598099,41.730789375Q86.2211,41.268570375,86.712509,40.770736375Q87.203918,40.272903375,87.560204,39.743019375Q88.237366,38.735935375,88.415451,37.633367375Q88.46981,37.296791375,88.477112,36.952997374999995Q88.484421,36.609203375,88.444641,36.259023375Q88.404861,35.908840375,88.3181,35.553115375000004Q88.231339,35.197387375000005,88.097809,34.836975375Q87.964279,34.476562375,87.784302,34.112329375Q87.604324,33.748096375,87.378319,33.380920375Q87.152321,33.013744375,86.880844,32.644510374999996Q86.609375,32.275278375,86.293076,31.904878375Q85.976784,31.534477375,85.61644,31.163803375Q85.256088,30.793127375,84.852547,30.423069375Q84.449005,30.053011375,84.003242,29.684461375Q83.557487,29.315912375,83.070587,28.949760375Q82.583687,28.583608375,82.056824,28.220735375Q81.529953,27.857864375,80.964378,27.499143375Q80.398804,27.140422375,79.795898,26.786720375Q79.192986,26.433017375,78.554192,26.085184375Q77.915398,25.737350375,77.242256,25.396225375Q76.569107,25.055099375,75.863243,24.721504375Q75.157372,24.387907375,74.420471,24.062643375Q73.683578,23.737379375,72.917435,23.421231374999998Q72.151291,23.105084375,71.35775,22.798815375Q70.564201,22.492546375,69.745163,22.196893375000002Q68.926117,21.901239375,68.083565,21.616914375Q67.240997,21.332590375000002,66.376953,21.060278375Q65.512909,20.787965375,64.629456,20.528324375Q63.745995,20.268680375000002,62.845261,20.022334375Q61.944523,19.775985374999998,61.028679,19.543525375Q60.112831,19.311065375,59.184086,19.093053375Q58.255341,18.875042375,57.315926,18.672004375Q56.376518,18.468966375,55.428703,18.281391375Q54.480888,18.093814375,53.526951,17.922153375Q52.573017,17.750492075,51.615261,17.595159575Q50.755394,17.455702775,49.894215,17.329693775000003Q49.033028,17.203685775,48.172199,17.091369675Q47.311375,16.979054474999998,46.452576,16.880650475Q45.593781,16.782246575000002,44.738674,16.697944675000002Q43.883575,16.613643675,43.033833,16.543608675Q42.184086,16.473573675,41.341347,16.417941075Q40.498611,16.362308475,39.664516,16.321186075Q38.830425,16.280063675,38.006596,16.253531475000003Q37.18277,16.226999275,36.370808,16.215108875Q35.558842,16.203218475,34.760315,16.205993675000002Q33.961792,16.208768875,33.178257,16.226202975Q32.394726,16.243637075000002,31.627705,16.275696775Q30.860687,16.307756375,30.111671,16.354379675Q29.362656,16.401002875,28.633099,16.462099074999998Q27.90354,16.523195275,27.194853,16.598646175Q26.486168,16.674095174999998,25.799732,16.763752975Q25.1133,16.853410675,24.450449,16.957102775Q23.787598,17.060793875,23.149618,17.178317075000002Q22.511639,17.295841175,21.899769,17.426968575Q21.287899,17.558095975,20.703325,17.702571875Q20.118755,17.847049374999997,19.562618,18.004594375Q19.006479,18.162140375,18.479853,18.332447375Q17.953228,18.502755375,17.457138,18.685495375000002Q16.961048,18.868234375,16.49646,19.063051375Q16.031872,19.257868375,15.599684,19.464384375Q15.167498,19.670900375000002,14.76855,19.888714375Q14.369604,20.106528375,14.004674,20.335216375Q13.639744,20.563903375000002,13.309536,20.803022374999998Q12.979331,21.042142374999997,12.684491,21.291227375Q12.38965,21.540311375,12.130749,21.798878375Q11.871847,22.057446374999998,11.649387,22.324995375Q11.426927,22.592541375,11.241339,22.868549375Q10.56418,23.875635375,10.386098,24.978202375Q10.330336,25.323448375,10.324088,25.676275375Q10.317842,26.029102375,10.361126,26.388614375Q10.404411,26.748129375,10.497117,27.113418375Q10.589823,27.478710375,10.731716,27.848848375Q10.87361,28.218988375,11.064329,28.593040375Q11.25505,28.967090375,11.494113,29.344106375Q11.733177,29.721122375,12.019979,30.100147375Q12.30678,30.479171375,12.640591,30.859241375Q12.974403,31.239315375,13.354381,31.619470375Q13.734358,31.999628375,14.159536,32.378904375000005Q14.584715,32.758182375000004,15.054018,33.135618375Q15.523321,33.513054374999996,16.035557,33.887693375Q16.547794,34.262333375,17.101667,34.633224375Q17.65554,35.004116374999995,18.249643,35.370321375Q18.843748,35.736526375,19.476578,36.097116375Q20.109409,36.457702375,20.779362,36.811761375Q21.243523,38.629922375,21.933849,40.374481375Q21.264778,40.107711375,20.610657,39.834648375Q19.956535,39.561588375,19.318058,39.282518374999995Q18.679585,39.003456375,18.057426,38.718681375Q17.43527,38.433906375,16.830091,38.143724375000005Q16.224915,37.853544375,15.637357,37.558263374999996Q15.049799,37.262983375000005,14.480482,36.962915375Q13.911167,36.662849375,13.360699,36.358316375Q12.810228,36.053779375000005,12.279185,35.745096375Q11.748144,35.436416375,11.237092,35.123916375Q10.726042,34.811416375,10.235521,34.495426375Q9.7450027,34.179439375,9.2755346,33.860300375Q8.8060665,33.541156375,8.3581467,33.219198375000005Q7.9102268,32.897241375,7.4843302,32.572807375Q7.0584335,32.248375374999995,6.6550102,31.921812375Q6.2515879,31.595249375,5.8710661,31.266903375Q5.4905443,30.938552375,5.1333265,30.608766375Q4.7761097,30.278982375,4.4425745,29.948108375Q4.1090393,29.617233375,3.7995396,29.285621375Q3.4900403,28.954010375,3.2049046,28.622013375Q2.9197688,28.290016375,2.6592982,27.957981375Q2.3988278,27.625949375,2.1632986,27.294233375Q1.9277694,26.962516375,1.7174308,26.631466375Q1.5070925,26.300418375,1.3221674,25.970388375Q1.1372424,25.640358375,0.97792679,25.311695375Q0.81861126,24.983034375,0.68507367,24.656088375Q0.55153608,24.329143375,0.44391799,24.004259375Q0.33629996,23.679376375,0.25471532,23.356899374999998Q0.17313069,23.034422375,0.1176659,22.714693375Q0.062201131,22.394964375,0.032914951,22.078323375Q0.003628772,21.761680374999997,0.00055220164,21.448459375Q-0.0025243687,21.135240375000002,0.020611931,20.825773375Q0.04374823,20.516306375,0.093072891,20.210920375Q0.37395266,18.471902375,1.491423,16.898955375Q1.7526032,16.531318675,2.0585618,16.174648275Q2.3645205,15.817977875,2.7146842,15.472942875000001Q3.0648475,15.127906775,3.4585586,14.795152675Q3.8522699,14.462398075,4.2887907,14.142549975Q4.7253113,13.822701474999999,5.2038221,13.516358875Q5.682333,13.210016275000001,6.2019377,12.917754174999999Q6.7215414,12.625492075,7.2812643,12.347857975Q7.8409872,12.070224275000001,8.4397793,11.807739775Q9.0385704,11.545255175,9.6753082,11.298412275Q10.312045,11.051569475,10.985534,10.820831575Q11.659022,10.590093175,12.367998,10.375892175Q13.076975,10.161691475,13.82011,9.964429875Q14.563245,9.767168075,15.339144,9.587215375Q16.115044,9.407262875,16.922253,9.244956975000001Q17.72946,9.082650975,18.566463,8.938296075Q19.403465,8.793941255,20.268696,8.667808175Q21.133924,8.541675095,22.025755,8.434000495Q22.917587,8.326325835,23.834349,8.237311545Q24.751106,8.148297255,25.691076,8.078110305Q26.631046,8.007923365,27.592466,7.956695395Q28.553883,7.905467406,29.534945,7.87329448Q30.516006,7.841121554,31.514874,7.82806403Q32.513737,7.8150065048,33.528534,7.8210888724Q34.543327,7.82717124,35.572151,7.852382094Q36.600971,7.87759294,37.641891,7.921884985Q38.682808,7.966177035,39.733875,8.029467195Q40.784939,8.092757345,41.844177,8.174926935Q42.903416,8.257096525,43.968842,8.357991394999999Q45.034264,8.458886265,46.103878,8.578317165Q47.173492,8.697748065,48.245285,8.835491075Q49.317078,8.973233975,50.389046,9.129030675Q51.461006,9.284827275,52.531136,9.458385475Q53.744011,9.655095375,54.951771,9.874172475Q56.159538,10.093249275,57.35928,10.334165575Q58.559021,10.575081875,59.747852,10.837256875Q60.936684,11.099431775,62.111736,11.382234075Q63.286789,11.665036475,64.445236,11.967784875Q65.603683,12.270533075,66.742737,12.592498275Q67.88179,12.914463075,68.998703,13.254868975Q70.115608,13.595274974999999,71.207687,13.953301875000001Q72.299759,14.311328875000001,73.36438,14.686114275000001Q74.428993,15.060899775,75.463585,15.451540975Q76.498169,15.842181175,77.500237,16.247735974999998Q78.502304,16.653291675,79.469437,17.072784374999998Q80.436569,17.492277174999998,81.36644,17.924697375Q82.29631,18.357116375,83.186676,18.801422375Q84.077042,19.245726375,84.925751,19.700845375Q85.774467,20.155965375,86.579491,20.620803375Q87.384506,21.085641375,88.143898,21.559077375Q88.90329,22.032512375,89.615211,22.513407375Q90.327133,22.994300375,90.989876,23.481495375Q91.652618,23.968689375,92.264595,24.461008375Q92.876556,24.953327375,93.436279,25.449585375Q93.99601,25.945842375,94.502144,26.444847375Q95.008263,26.943849375,95.459572,27.444395375Q95.910881,27.944938375,96.30629,28.445819375Q96.701691,28.946701375,97.040245,29.446710375Q97.378799,29.946722375,97.659683,30.444658375Q97.940552,30.942592375,98.163086,31.437254375Q98.385605,31.931913375,98.549255,32.422107374999996Q98.712898,32.912304375000005,98.817268,33.396850375Q98.921631,33.881399375,98.966476,34.359132375Q99.011307,34.836864375000005,98.996498,35.306633375000004Q98.981697,35.776397375,98.907295,36.237068375Z" fill-rule="evenodd" fill="url(#master_svg1_10_05695)" fill-opacity="1"/><path d="M97.508949,39.549032374999996Q98.626411,37.976085375,98.907295,36.237068375Q98.981697,35.776397375,98.996506,35.306633375000004Q99.011307,34.836864375000005,98.966476,34.359132375Q98.921631,33.881399375,98.817268,33.396850375Q98.712898,32.912304375000005,98.549255,32.422107374999996Q98.385605,31.931913375,98.163078,31.437252375Q97.940552,30.942592375,97.659676,30.444656375Q97.378799,29.946720375,97.040245,29.446708375Q96.701691,28.946699375,96.306282,28.445818375Q95.910873,27.944938375,95.459564,27.444393375Q95.008255,26.943849375,94.502136,26.444847375Q93.996002,25.945842375,93.436279,25.449585375Q92.876549,24.953325375,92.26458,24.461006375Q91.652603,23.968687375,90.989868,23.481493375Q90.327118,22.994300375,89.615204,22.513407375Q88.903275,22.032512375,88.14389,21.559076375Q87.384506,21.085641375,86.579483,20.620803375Q85.77446,20.155965375,84.925751,19.700845375Q84.077034,19.245725375,83.186676,18.801421375Q82.29631,18.357116375,81.36644,17.924697375Q80.436569,17.492277174999998,79.469437,17.072784374999998Q78.502304,16.653291675,77.500237,16.247735974999998Q76.498169,15.842181175,75.463585,15.451540975Q74.428993,15.060899775,73.36438,14.686114275000001Q72.299759,14.311328875000001,71.207687,13.953301875000001Q70.115608,13.595274974999999,68.998703,13.254868975Q67.88179,12.914463075,66.742737,12.592498275Q65.603683,12.270533075,64.445236,11.967784875Q63.286789,11.665036475,62.111732,11.382234075Q60.936676,11.099431775,59.747849,10.837256875Q58.559021,10.575081875,57.359283,10.334165575Q56.159538,10.093249275,54.951775,9.874172175Q53.744011,9.655095375,52.531136,9.458385475Q51.461006,9.284827275,50.389042,9.129030575Q49.317078,8.973233975,48.245285,8.835491075Q47.173492,8.697748065,46.103878,8.578317225Q45.034264,8.458886325,43.968842,8.357991455Q42.903416,8.257096555,41.844177,8.174926995Q40.784939,8.092757405,39.733875,8.029467225Q38.682808,7.966177045,37.641891,7.921884985Q36.600971,7.87759294,35.572151,7.852382094Q34.543327,7.82717124,33.528534,7.8210888715Q32.513737,7.8150065029,31.514874,7.8280640263Q30.516006,7.841121547,29.534945,7.873294473Q28.553883,7.905467391,27.592466,7.956695375Q26.631046,8.007923365,25.691076,8.078110305Q24.751106,8.148297255,23.834347,8.237311545Q22.917587,8.326325835,22.025753,8.434000495Q21.133923,8.541675095,20.268694,8.667808175Q19.403465,8.793941255,18.566463,8.938296075Q17.72946,9.082650975,16.922253,9.244956975000001Q16.115044,9.407262875,15.339144,9.587215575Q14.563244,9.767168075,13.820108,9.964429875Q13.076973,10.161691675,12.367996,10.375892375Q11.659021,10.590093375,10.985533,10.820831775Q10.312044,11.051569975,9.6753063,11.298412575Q9.0385695,11.545255375,8.4397783,11.807739975Q7.8409863,12.070224275000001,7.2812634,12.347857975Q6.7215414,12.625492075,6.2019372,12.917754174999999Q5.682333,13.210016275000001,5.2038217,13.516358375Q4.7253103,13.822701474999999,4.2887902,14.142549975Q3.8522696,14.462398075,3.4585586,14.795151675Q3.0648472,15.127906275,2.714684,15.472942374999999Q2.3645205,15.817977875,2.0585618,16.174648275Q1.7526032,16.531318675,1.491423,16.898955375Q0.37395266,18.471902375,0.093072891,20.210920375Q0.045219652,20.507196375,0.022015262,20.807316375Q-0.0011891286,21.107439375,0.00027846172,21.411106375Q0.0017460521,21.714775375000002,0.027884159,22.021686375Q0.054022264,22.328600375,0.10480484,22.638450374999998Q0.1555874,22.948301375,0.23096381,23.260782374999998Q0.30634022,23.573261375,0.40623534,23.888059375Q0.50613046,24.202858375,0.63044465,24.519661375Q0.75475889,24.836464375,0.90336835,25.154953375Q1.0519779,25.473446375,1.2247343,25.793306375Q1.397491,26.113168375,1.5942223,26.434082375Q1.7909538,26.754995375,2.0114639,27.076641375Q2.2319741,27.398286375,2.4760432,27.720344375Q2.7201123,28.042402375,2.9874969,28.364551375Q3.2548816,28.686699375,3.5453153,29.008615375Q3.8357491,29.330532375,4.1489429,29.651897375Q4.4621363,29.973262375,4.7977772,30.293756375Q5.1334181,30.614250375,5.4911723,30.933553375Q5.8489261,31.252857375,6.228436,31.570650375Q6.6079459,31.888443375,7.0088339,32.204410374999995Q7.4097219,32.520376375,7.8315883,32.834201375Q8.2534542,33.148027375,8.695878,33.459398375Q9.1383018,33.770769375,9.6008434,34.079374375Q10.063384,34.387981374999995,10.54558,34.693515375000004Q11.027777,34.999050374999996,11.529148,35.301206375Q12.030519,35.603365374999996,12.550566,35.901844374999996Q13.070613,36.200325375,13.608817,36.494829374999995Q14.14702,36.789333375,14.702845,37.079568375Q15.258669,37.369802375,15.831558,37.655479375Q16.404449,37.941156375,16.993834,38.221988374999995Q17.58322,38.502823375,18.188513,38.778534375Q18.793808,39.054245375,19.414404,39.324556375Q20.035002,39.594869375,20.670284,39.859512375Q21.295263,40.119865375,21.933849,40.374481375Q21.68511,39.745880375,21.465374,39.106516375Q21.075844,37.973106375,20.779362,36.811761375Q20.109409,36.457702375,19.476578,36.097114375000004Q18.843748,35.736526375,18.249643,35.370321375Q17.65554,35.004116374999995,17.101667,34.633224375Q16.547794,34.262333375,16.035557,33.887691375Q15.523321,33.513054374999996,15.054018,33.135618375Q14.584715,32.758182375000004,14.159536,32.378904375000005Q13.734358,31.999628375,13.354381,31.619472375Q12.974403,31.239315375,12.640591,30.859241375Q12.30678,30.479171375,12.019979,30.100147375Q11.733177,29.721122375,11.494113,29.344104375Q11.25505,28.967090375,11.06433,28.593040375Q10.87361,28.218988375,10.731716,27.848848375Q10.589823,27.478710375,10.497117,27.113418375Q10.404411,26.748129375,10.361126,26.388614375Q10.317842,26.029102375,10.324089,25.676275375Q10.330336,25.323448375,10.386098,24.978202375Q10.56418,23.875635375,11.241339,22.868549375Q11.426927,22.592541375,11.649387,22.324995375Q11.871847,22.057447375000002,12.130749,21.798879375Q12.38965,21.540311375,12.684491,21.291227375Q12.979331,21.042142374999997,13.309536,20.803022374999998Q13.639744,20.563903375000002,14.004675,20.335216375Q14.369605,20.106527375,14.768551,19.888713375000002Q15.167498,19.670900375000002,15.599684,19.464384375Q16.031872,19.257868375,16.49646,19.063051375Q16.961048,18.868234375,17.457138,18.685495375000002Q17.953228,18.502755375,18.479853,18.332447375Q19.006479,18.162140375,19.562618,18.004594375Q20.118755,17.847049374999997,20.703327,17.702571875Q21.287899,17.558095975,21.899771,17.426968575Q22.511641,17.295841175,23.14962,17.178317075000002Q23.7876,17.060793875,24.450449,16.957101774999998Q25.1133,16.853410675,25.799732,16.763752975Q26.486168,16.674095174999998,27.194853,16.598645175Q27.903538,16.523195275,28.633097,16.462099074999998Q29.362656,16.401002875,30.111671,16.354379675Q30.860689,16.307756375,31.627707,16.275696775Q32.394726,16.243637075000002,33.178261,16.226202975Q33.961792,16.208768875,34.760315,16.205993675000002Q35.558842,16.203218475,36.370804,16.215108875Q37.18277,16.226999275,38.006596,16.253531475000003Q38.830425,16.280063675,39.66452,16.321186075Q40.498611,16.362308475,41.341347,16.417942075Q42.184086,16.473573675,43.033829,16.543609574999998Q43.883575,16.613643675,44.738674,16.697945575Q45.593781,16.782247575,46.452579,16.880651475Q47.311378,16.979055375,48.172203,17.091369675Q49.033028,17.203685775,49.894215,17.329694775Q50.755394,17.455702775,51.615261,17.595159575Q52.573017,17.750492075,53.526955,17.922153375Q54.480888,18.093814375,55.428703,18.281391375Q56.376518,18.468966375,57.315929,18.672004375Q58.255341,18.875043375,59.18409,19.093054375Q60.112835,19.311065375,61.028679,19.543524375Q61.944527,19.775984375,62.845261,20.022333375000002Q63.745995,20.268680375000002,64.629448,20.528323375Q65.512909,20.787965375,66.376953,21.060278375Q67.240997,21.332590375000002,68.083565,21.616914375Q68.926117,21.901239375,69.745163,22.196893375000002Q70.564201,22.492546375,71.357742,22.798815375Q72.151291,23.105084375,72.917435,23.421231374999998Q73.683578,23.737379375,74.420479,24.062643375Q75.157372,24.387907375,75.863243,24.721504375Q76.569107,25.055099375,77.242256,25.396225375Q77.915398,25.737350375,78.554192,26.085184375Q79.192986,26.433017375,79.795898,26.786720375Q80.398804,27.140422375,80.964378,27.499143375Q81.529953,27.857864375,82.056816,28.220735375Q82.583687,28.583608375,83.070587,28.949760375Q83.557487,29.315912375,84.00325,29.684461375Q84.449005,30.053011375,84.852547,30.423069375Q85.256088,30.793127375,85.61644,31.163803375Q85.976784,31.534477375,86.293076,31.904876375Q86.609375,32.275276375000004,86.880844,32.644510374999996Q87.152328,33.013742375,87.378326,33.380918375Q87.604324,33.748092375,87.784309,34.112323375Q87.964279,34.476558374999996,88.097816,34.836971375000005Q88.231346,35.197384375,88.3181,35.553112375Q88.404861,35.908838375,88.444641,36.259021375Q88.484421,36.609203375,88.477112,36.952997374999995Q88.46981,37.296791375,88.415451,37.633367375Q88.237366,38.735935375,87.560204,39.743019375Q87.203918,40.272903375,86.712509,40.770736375Q86.2211,41.268570375,85.598099,41.730789375Q84.97509,42.193016375,84.22493,42.616325375Q83.474777,43.039638375,82.602829,43.421009375Q81.730888,43.802383375,80.743393,44.139087375Q79.75589,44.475795375,78.659897,44.765430375Q77.563904,45.055069375,76.367256,45.295559375Q75.170609,45.536049375,73.881844,45.725681375Q73.313705,46.590191375,72.686493,47.412662375Q72.277084,47.949524375,71.843582,48.467041375Q72.529327,48.427227375,73.203972,48.377678375Q74.325027,48.295337375,75.413071,48.186302375Q76.501114,48.077263375,77.553246,47.941822375Q78.60537,47.806377375,79.618782,47.644886375Q80.632195,47.483394375,81.604195,47.296283375Q82.576195,47.109169375,83.504196,46.896934375Q84.432198,46.684703375,85.313736,46.447914375Q86.195267,46.211128375,87.028,45.950412375Q87.860718,45.689697375,88.642418,45.405750375Q89.424118,45.121803375,90.15271,44.815376375Q90.881302,44.508949375,91.554855,44.180866375Q92.228409,43.852775375,92.845116,43.503902375Q93.461823,43.155029375,94.020058,42.786293375Q94.578293,42.417556375,95.076561,42.029937375Q95.574829,41.642318375,96.01181,41.236854375Q96.448792,40.831386375,96.823334,40.409149375Q97.197861,39.986915375,97.508949,39.549032374999996ZM74.001541,47.316745375Q91.768234,45.902980375,96.693733,38.969879375000005Q97.676331,37.586765375,97.92009,36.077617375Q99.065613,28.985321375,86.079445,21.486802375Q72.655052,13.735240975,52.371048,10.445488475Q34.683975,7.576917645,20.412949,9.657348675Q6.4128065,11.698289375,2.3066399,17.478111275Q1.3240297,18.861229375,1.080277,20.370370375Q0.35843134,24.839553375,5.811657,29.874010375Q10.96529,34.631879375,20.245934,38.596326375000004Q20.074289,38.045818374999996,19.923386,37.488542375Q8.3582096,31.261959375,9.3988914,24.818752375Q9.6119461,23.499661375000002,10.411491,22.310563375Q13.762052,17.327546075,25.670219,15.772175275Q37.275368,14.256382975000001,51.775356,16.608059875000002Q68.104111,19.256334375,79.03241,25.206941375Q90.432838,31.414631375,89.402657,37.792820375000005Q89.189598,39.111917375000004,88.390053,40.301006375Q85.244637,44.978939375,74.468063,46.648487375Q74.239166,46.985881375,74.001541,47.316745375Z" fill-rule="evenodd" fill="url(#master_svg2_10_05791)" fill-opacity="1"/></g></g></svg>