<svg xmlns="http://www.w3.org/2000/svg" xmlns:xlink="http://www.w3.org/1999/xlink" fill="none" version="1.1" width="1920" height="1021" viewBox="0 0 1920 1021"><defs><mask id="master_svg0_101_63811" style="mask-type:alpha" maskUnits="objectBoundingBox"><g><rect x="0" y="0" width="1920" height="1021" rx="0" fill="#FFFFFF" fill-opacity="1"/></g></mask><filter id="master_svg1_101_63783" filterUnits="objectBoundingBox" color-interpolation-filters="sRGB" x="-0.010416666666666666" y="-0.042666666666666665" width="1.0208333333333333" height="1.1066666666666667"><feFlood flood-opacity="0" result="BackgroundImageFix"/><feColorMatrix in="SourceAlpha" type="matrix" values="0 0 0 0 0 0 0 0 0 0 0 0 0 0 0 0 0 0 127 0"/><feOffset dy="4" dx="0"/><feGaussianBlur stdDeviation="5"/><feColorMatrix type="matrix" values="0 0 0 0 0 0 0 0 0 0 0 0 0 0 0 0 0 0 0.30000001192092896 0"/><feBlend mode="normal" in2="BackgroundImageFix" result="effect1_dropShadow"/><feBlend mode="normal" in="SourceGraphic" in2="effect1_dropShadow" result="shape"/></filter><linearGradient x1="1.019225835800171" y1="0.5" x2="0" y2="0.5" id="master_svg2_10_05475"><stop offset="0%" stop-color="#FCFF4F" stop-opacity="0.699999988079071"/><stop offset="100%" stop-color="#3355C7" stop-opacity="0.699999988079071"/></linearGradient><linearGradient x1="0.5" y1="0" x2="0.5" y2="2.2753169536590576" id="master_svg3_10_04889"><stop offset="0%" stop-color="#0E123A" stop-opacity="1"/><stop offset="100%" stop-color="#0E123A" stop-opacity="0"/></linearGradient><radialGradient cx="0" cy="0" r="1" gradientUnits="userSpaceOnUse" id="master_svg4_10_05185" gradientTransform="translate(78 -63) rotate(90) scale(450 450)"><stop offset="0%" stop-color="#3355C7" stop-opacity="1"/><stop offset="100%" stop-color="#3355C7" stop-opacity="0"/></radialGradient><radialGradient cx="0" cy="0" r="1" gradientUnits="userSpaceOnUse" id="master_svg5_10_05521" gradientTransform="translate(1742.6380082032338 319.14014956355095) rotate(127.31612120982103) scale(124.9910597467867 124.6557620587484)"><stop offset="71.97312116622925%" stop-color="#3355C7" stop-opacity="0"/><stop offset="100%" stop-color="#3355C7" stop-opacity="1"/></radialGradient><linearGradient x1="1.0192630290985107" y1="0.7386457920074463" x2="-0.014080135949448298" y2="0.6666400813500413" id="master_svg6_10_05695"><stop offset="0%" stop-color="#3355C7" stop-opacity="0"/><stop offset="52.14285850524902%" stop-color="#3355C7" stop-opacity="0.10000000149011612"/><stop offset="100%" stop-color="#3355C7" stop-opacity="0.05000000074505806"/></linearGradient><linearGradient x1="0.8030247688293457" y1="0.7207935452461243" x2="0.1407916624633028" y2="0.6887537098301149" id="master_svg7_101_60013"><stop offset="0%" stop-color="#3355C7" stop-opacity="0"/><stop offset="47.14285731315613%" stop-color="#3355C7" stop-opacity="0.4000000059604645"/><stop offset="100%" stop-color="#3355C7" stop-opacity="0"/></linearGradient><linearGradient x1="0" y1="0.5" x2="1" y2="0.5" id="master_svg8_101_59816"><stop offset="0%" stop-color="#EED94C" stop-opacity="1"/><stop offset="100%" stop-color="#EED94C" stop-opacity="0"/></linearGradient><linearGradient x1="0" y1="0.5" x2="1" y2="0.5" id="master_svg9_101_59816"><stop offset="0%" stop-color="#EED94C" stop-opacity="1"/><stop offset="100%" stop-color="#EED94C" stop-opacity="0"/></linearGradient><linearGradient x1="0" y1="0.5" x2="1" y2="0.5" id="master_svga_101_59756"><stop offset="0%" stop-color="#3355C7" stop-opacity="1"/><stop offset="100%" stop-color="#3355C7" stop-opacity="0"/></linearGradient><linearGradient x1="0" y1="0.5" x2="1" y2="0.5" id="master_svgb_101_59756"><stop offset="0%" stop-color="#3355C7" stop-opacity="1"/><stop offset="100%" stop-color="#3355C7" stop-opacity="0"/></linearGradient><linearGradient x1="0" y1="0.5" x2="1" y2="0.5" id="master_svgc_101_59756"><stop offset="0%" stop-color="#3355C7" stop-opacity="1"/><stop offset="100%" stop-color="#3355C7" stop-opacity="0"/></linearGradient></defs><g mask="url(#master_svg0_101_63811)"><g><g><g filter="url(#master_svg1_101_63783)"><rect x="0" y="559" width="1920" height="375" rx="0" fill="url(#master_svg2_10_05475)" fill-opacity="1"/></g><g><rect x="0" y="555" width="1920" height="378" rx="0" fill="url(#master_svg3_10_04889)" fill-opacity="1"/></g><g><g><path d="M-4,752.194748L15.305639,745.651482L126.5061,785.680573L334.62091,728.716106L388.29059,754.504143L424.19907,759.122814L527.2912,836.87172L554.31909,836.87172L593.70258,856.88622L621.50269,854.57695L823.82581,930.7861800000001L884.83154,917.69975L1005.2988,930.7861800000001L1123.8352,874.20651L1160.516,880.36487L1236.1942,844.95454L1291.7944,854.57695L1470.5646,759.892654L1543.5399,770.28476L1661.3043,696L1727.3296,706.007303L1755.902,696L1920,746.806236L1920,1119L-0.1388723999999999,1119L-4,752.194748Z" fill="#0E123A" fill-opacity="1" style="mix-blend-mode:passthrough"/></g><g><g><path d="M592.5441342592239,900.37890625L843.1313542592239,1062.41989625L851.6258342592239,1021.6209562500001L592.5441342592239,900.37890625Z" fill="#2B3955" fill-opacity="1" style="mix-blend-mode:passthrough"/></g><g><path d="M187.8980332252884,850.72884375L117.6255332252884,805.31112275L239.2510132252884,860.73603375L129.9811232252884,792.60962275L126.50610322528838,785.68143875L15.305637525288391,745.65234375L6.425043225288391,748.73157715L87.8948382252884,796.84349775L50.44189622528839,787.99083375L187.8980332252884,850.72884375Z" fill="#2B3955" fill-opacity="1" style="mix-blend-mode:passthrough"/></g><g><path d="M-3.613885760307312,797.2280295L62.41139823969269,825.7103765L-3.613885760307312,775.2890625L-3.613885760307312,797.2280295Z" fill="#2B3955" fill-opacity="1" style="mix-blend-mode:passthrough"/></g><g><path d="M388.2905633666458,754.5046805L335.0069943666458,729.1015625L418.4073463666458,806.0806355L418.4073463666458,816.0879365L428.4462723666458,825.7103275L428.4462723666458,841.4909325L551.2301343666459,933.0961125L482.1159743666458,860.7357025L522.2716843666458,879.2107525L540.8050943666458,879.2107525L602.1969943666459,925.3981925L546.5967943666458,860.7357025L501.4216343666458,827.2498775L494.0854443666458,811.8540645L424.19903336664584,759.1233535L388.2905633666458,754.5046805Z" fill="#2B3955" fill-opacity="1" style="mix-blend-mode:passthrough"/></g><g><path d="M529.2217435270364,838.79557065L546.2106817670365,838.79557065L659.3417397670364,908.84645875L624.9777207670364,902.68822475L804.5201497670364,981.20684375L657.7972897670364,886.13765675L823.0535297670365,935.40433475L835.4091897670364,928.47614275L823.8258097670364,930.78554575L621.5026687670364,854.57630375L593.7025657670364,856.88558175L554.3190707670365,836.87109375L528.4495297670364,836.87109375L529.2217435270364,838.79557065Z" fill="#2B3955" fill-opacity="1" style="mix-blend-mode:passthrough"/></g><g><path d="M971.7069771889114,943.87311525L958.1930171889114,958.49921425L1038.1184171889115,933.09609225L1124.2215371889115,875.36178775L1175.9606071889114,882.67477705L1168.2383171889114,876.90134595L1160.5160871889116,880.36538075L1123.8353671889115,874.20703125L1005.2988371889114,930.78669725L884.8315971889115,917.70027925L823.8258341889115,930.78669725L819.5785691889114,929.24713925L774.4033871889114,943.87311525L891.0094371889114,928.09238425L971.7069771889114,943.87311525Z" fill="#2B3955" fill-opacity="1" style="mix-blend-mode:passthrough"/></g><g><path d="M1162.0605504506302,896.1441609999999L1085.99629045063,949.644595L1245.4608204506303,853.4207525L1309.1694204506302,858.039544L1300.6750104506302,849.956718L1291.7943504506302,854.5755091L1236.1941104506302,844.953125L1160.5160104506301,880.363426L1158.58545045063,880.363426L1053.9489804506302,938.0977330000001L1162.0605504506302,896.1441609999999Z" fill="#2B3955" fill-opacity="1" style="mix-blend-mode:passthrough"/></g><g><path d="M1147.3883117240678,949.6460244189453L1184.0690257240676,936.1746844189453L1193.7218457240676,927.3221444189453L1223.8387157240677,931.1710944189454L1242.3720757240676,913.4658844189453L1290.6361757240677,888.0627544189454L1298.3584157240678,869.9727544189453L1325.0002057240677,861.1200844189453L1355.8892257240677,841.4904024189453L1331.9502957240677,861.1200844189453L1324.6140457240676,868.8180044189453L1306.0806957240677,874.2065044189453L1301.4472857240676,885.3685644189453L1277.8944957240676,900.3794544189453L1263.9944057240677,924.6278244189454L1235.0359557240677,949.6460244189453L1275.9639357240676,933.0955644189453L1344.3058557240677,871.5123144189453L1472.8814457240678,759.8926544189453L1470.5647357240678,759.8926544189453L1307.5000057240677,846.0000154189453L1070.5518857240677,981.2074844189453L1147.3883117240678,949.6460244189453Z" fill="#2B3955" fill-opacity="1" style="mix-blend-mode:passthrough"/></g><g><path d="M1594.8929806459428,856.5014L1623.8514506459428,790.29937L1650.1071806459427,745.266563L1650.1071806459427,729.101028L1660.1461206459426,710.625977L1662.8488506459425,696.38491887L1661.3044206459426,696L1543.5400406459426,770.28476L1524.6205306459426,767.590561L1476.7425906459428,813.0081700000001L1271.7166806459427,986.98093L1594.8929806459428,856.5014Z" fill="#2B3955" fill-opacity="1" style="mix-blend-mode:passthrough"/></g></g></g></g><g style="opacity:0.4000000059604645;"><ellipse cx="78" cy="-63" rx="450" ry="450" fill="url(#master_svg4_10_05185)" fill-opacity="1"/></g><g><g style="opacity:0.30000001192092896;"><ellipse cx="1732.8432312011719" cy="328.5" rx="97.23844909667969" ry="97.5" fill="url(#master_svg5_10_05521)" fill-opacity="1"/></g><g><path d="M1896.71545,350.777069125Q1896.25195,353.648819125,1895.09216,356.394943125Q1893.93237,359.141063125,1892.08621,361.738083125Q1891.55276,362.488483125,1890.96277,363.225203125Q1890.37277,363.961933125,1889.72662,364.684453125Q1889.08044,365.406963125,1888.3786,366.114773125Q1887.67679,366.822583125,1886.9198000000001,367.515183125Q1886.16278,368.207763125,1885.3510999999999,368.884633125Q1884.53946,369.56149312499997,1883.6737699999999,370.222163125Q1882.80804,370.882823125,1881.8889199999999,371.526813125Q1880.96979,372.170793125,1879.99789,372.797653125Q1879.02597,373.424493125,1878.00198,374.033753125Q1876.97797,374.643023125,1875.90262,375.234263125Q1874.82727,375.825493125,1873.7013200000001,376.39828312500003Q1872.57538,376.971073125,1871.39972,377.525023125Q1870.224,378.078953125,1868.99939,378.613633125Q1867.77472,379.148313125,1866.50208,379.663373125Q1865.22937,380.178403125,1863.90955,380.673453125Q1862.58972,381.168493125,1861.22369,381.643193125Q1859.8576699999999,382.117863125,1858.44641,382.571853125Q1857.03516,383.025833125,1855.57971,383.458813125Q1854.12424,383.891763125,1852.62561,384.303393125Q1851.12695,384.715023125,1849.58624,385.105043125Q1848.04547,385.495043125,1846.46375,385.86314312499997Q1844.88202,386.231233125,1843.26047,386.57718312500003Q1841.63885,386.92309312500004,1839.97858,387.246593125Q1838.3183,387.570103125,1836.62051,387.870973125Q1834.9227,388.17181312499997,1833.1886,388.449813125Q1831.45453,388.727813125,1829.68536,388.982743125Q1827.9162000000001,389.237673125,1826.11328,389.469343125Q1824.31032,389.701033125,1822.4749,389.90931312500004Q1820.6394500000001,390.117583125,1818.7728299999999,390.302273125Q1816.90619,390.487003125,1815.00974,390.64801312500003Q1813.1132499999999,390.809023125,1811.18829,390.946213125Q1809.26334,391.083433125,1807.31126,391.196743125Q1810.93886,386.86485312499997,1814.04253,382.141393125Q1816.16983,381.828383125,1818.22296,381.473063125Q1820.27609,381.117733125,1822.2514,380.720723125Q1824.22673,380.323723125,1826.12067,379.885753125Q1828.01465,379.447773125,1829.82382,378.969613125Q1831.6330600000001,378.491463125,1833.35428,377.973983125Q1835.07556,377.456493125,1836.70575,376.900613125Q1838.33594,376.344723125,1839.87219,375.751423125Q1841.40845,375.158123125,1842.84796,374.528473125Q1844.28754,373.898833125,1845.62781,373.233963125Q1846.96808,372.569093125,1848.20667,371.870183125Q1849.44525,371.171283125,1850.57996,370.439573125Q1851.71466,369.70788312499997,1852.74344,368.944703125Q1853.77225,368.181533125,1854.69327,367.38824312500003Q1855.6143200000001,366.594953125,1856.4259299999999,365.772963125Q1857.23758,364.950973125,1857.93835,364.101753125Q1858.63916,363.252543125,1859.2278099999999,362.377603125Q1861.47031,359.04467312500003,1862.05933,355.395126125Q1862.23886,354.282699125,1862.26294,353.146416125Q1862.28705,352.010132125,1862.15564,350.852737125Q1862.02423,349.695335125,1861.73758,348.519607125Q1861.4509600000001,347.343872125,1861.00983,346.152649125Q1860.56873,344.961426125,1859.97415,343.75756812500003Q1859.37961,342.553726125,1858.6330600000001,341.340141125Q1857.88647,340.126556125,1856.9896899999999,338.906174125Q1856.09293,337.685783125,1855.0481,336.461540125Q1854.00327,335.237289125,1852.81293,334.012131125Q1851.62256,332.78697212500003,1850.28952,331.563850125Q1848.95651,330.340721125,1847.48404,329.122574125Q1846.0115700000001,327.90443412499997,1844.4032,326.694206125Q1842.7948000000001,325.483986125,1841.05441,324.284599125Q1839.314,323.085205125,1837.4457400000001,321.89954412500003Q1835.57745,320.713875125,1833.58588,319.544784125Q1831.5943,318.375702125,1829.48416,317.226013125Q1827.37402,316.076321125,1825.15045,314.948795125Q1822.92688,313.821274125,1820.59518,312.718635125Q1818.2635,311.615990125,1815.82933,310.540890125Q1813.39516,309.465782125,1810.86436,308.420807125Q1808.33359,307.375831125,1805.71228,306.36350212499997Q1803.09099,305.351177125,1800.38548,304.373936125Q1797.67996,303.396690125,1794.89676,302.456886125Q1792.11356,301.517078125,1789.25937,300.616978125Q1786.40518,299.716873125,1783.48689,298.858646125Q1780.5686,298.000419125,1777.59325,297.186127125Q1774.61786,296.371834125,1771.59259,295.603443125Q1768.56731,294.835052125,1765.4994,294.114414125Q1762.43152,293.393776125,1759.32838,292.722626125Q1756.22527,292.051475125,1753.09439,291.431431125Q1749.9635,290.811386125,1746.81241,290.243938125Q1743.6613,289.676491125,1740.49759,289.163010125Q1737.65768,288.702083125,1734.81346,288.285595125Q1731.96924,287.869106125,1729.12619,287.497862125Q1726.28313,287.126613125,1723.44678,286.801332125Q1720.61043,286.476051125,1717.78629,286.197367125Q1714.96213,285.918678125,1712.15567,285.687128125Q1709.34921,285.455578125,1706.56589,285.271616125Q1703.78256,285.087650125,1701.02777,284.951630125Q1698.27299,284.815609125,1695.55211,284.727795125Q1692.83121,284.63997812499997,1690.14948,284.600540125Q1687.46774,284.561104125,1684.8304,284.570120125Q1682.19304,284.579136125,1679.60519,284.636589125Q1677.01733,284.694042125,1674.484,284.799824125Q1671.95065,284.905601125,1669.476761,285.059498125Q1667.002869,285.213398125,1664.593216,285.415117125Q1662.183556,285.616836125,1659.842819,285.865986125Q1657.502083,286.115133125,1655.234818,286.411228125Q1652.967545,286.707321125,1650.778137,287.04978512499997Q1648.58873,287.392250125,1646.481438,287.780422125Q1644.374138,288.168590125,1642.35305,288.601715125Q1640.33197,289.03483612499997,1638.401016,289.51207312500003Q1636.470062,289.989307125,1634.632988,290.509727125Q1632.795906,291.030144125,1631.056282,291.592739125Q1629.316647,292.155334125,1627.677841,292.75901012500003Q1626.039032,293.362686125,1624.50423,294.006271125Q1622.969421,294.649856125,1621.541603,295.332104125Q1620.113785,296.014351125,1618.795719,296.733932125Q1617.477654,297.45351412499997,1616.271904,298.209038125Q1615.066154,298.964561125,1613.975067,299.754562125Q1612.883972,300.544556125,1611.909653,301.367493125Q1610.935333,302.190426125,1610.079681,303.044704125Q1609.22403,303.898979125,1608.488701,304.782940125Q1607.753372,305.666901125,1607.139801,306.578831125Q1604.897305,309.911747125,1604.308273,313.561302125Q1604.216202,314.131744125,1604.165001,314.708641125Q1604.1138,315.285538125,1604.1035,315.868515125Q1604.093201,316.45148812499997,1604.123806,317.040176125Q1604.154411,317.628868125,1604.225906,318.222896125Q1604.297401,318.816925125,1604.409737,319.415913125Q1604.522076,320.014908125,1604.675186,320.618481125Q1604.828293,321.222053125,1605.022072,321.829826125Q1605.215851,322.437607125,1605.450188,323.049194125Q1605.684521,323.66078212499997,1605.959259,324.275802125Q1606.233994,324.890823125,1606.548958,325.508880125Q1606.863922,326.126938125,1607.218914,326.747635125Q1607.573906,327.36833912500003,1607.968704,327.99129512499997Q1608.363503,328.61424212500003,1608.797855,329.239059125Q1609.232208,329.863876125,1609.705837,330.490158125Q1610.179466,331.116424125,1610.692074,331.743774125Q1611.204681,332.371109125,1611.7559430000001,332.999122125Q1612.307205,333.627128125,1612.896774,334.255409125Q1613.48634,334.883697125,1614.113838,335.51184812500003Q1614.741333,336.13999912500003,1615.406364,336.767624125Q1616.071396,337.39524812499997,1616.773537,338.021942125Q1617.475677,338.64864312500004,1618.214485,339.274025125Q1618.953293,339.899399125,1619.728302,340.523064125Q1620.503304,341.146728125,1621.314018,341.76826512499997Q1622.1247290000001,342.389816125,1622.970634,343.008850125Q1623.81654,343.627884125,1624.697105,344.244026125Q1625.577663,344.860168125,1626.492325,345.473030125Q1627.406982,346.085876125,1628.355164,346.695038125Q1629.303345,347.304214125,1630.284447,347.909325125Q1631.265545,348.514435125,1632.278942,349.115089125Q1633.292336,349.715752125,1634.337387,350.31158412499997Q1635.382431,350.907410125,1636.458466,351.498031125Q1637.534508,352.088661125,1638.640862,352.67370612499997Q1640.174156,358.680973125,1642.454086,364.445083125Q1640.243958,363.563323125,1638.083199,362.660753125Q1635.922447,361.758183125,1633.81337,360.835773125Q1631.7043,359.913363125,1629.649132,358.972103125Q1627.593964,358.030823125,1625.594883,357.071683125Q1623.595802,356.112541125,1621.654926,355.136543125Q1619.71405,354.160553125,1617.833427,353.168739125Q1615.952808,352.176933125,1614.134438,351.170357125Q1612.316071,350.163780125,1610.561874,349.143501125Q1608.807686,348.123230125,1607.119522,347.090324125Q1605.431366,346.057419125,1603.811024,345.012985125Q1602.190689,343.968567125,1600.639889,342.913719125Q1599.089088,341.858871125,1597.609467,340.794708125Q1596.129847,339.730560125,1594.722971,338.658226125Q1593.316097,337.58589912499997,1591.983459,336.506523125Q1590.650826,335.427154125,1589.393837,334.34188812499997Q1588.136848,333.25662212500004,1586.956839,332.166595125Q1585.776831,331.076584125,1584.675051,329.982971125Q1583.573271,328.889358125,1582.550885,327.793304125Q1581.528502,326.697265125,1580.586596,325.599945125Q1579.6446905,324.50261712500003,1578.7842607,323.40517412500003Q1577.9238319,322.307739125,1577.1457901,321.21134912499997Q1576.3677483,320.114960125,1575.6729174,319.020775125Q1574.9780874,317.926597125,1574.3672047,316.835792125Q1573.7563214,315.744980125,1573.2300324,314.658691125Q1572.7037439,313.572407125,1572.2626066,312.491798125Q1571.8214692,311.411182125,1571.4659506,310.337387125Q1571.1104323,309.263595125,1570.84090918,308.197758125Q1570.57138604,307.131924125,1570.38814363,306.075172125Q1570.20490128,305.01842112500003,1570.10813373,303.971870125Q1570.011366187,302.925323125,1570.00117594,301.890083125Q1569.9909856934,300.854851125,1570.067383543,299.832023125Q1570.14378139,298.80919612499997,1570.3066864,297.799858125Q1570.77018201,294.928108125,1571.9299692,292.181980125Q1573.0897565,289.435848125,1574.9359107,286.838835125Q1575.7993555,285.624216125,1576.8106499,284.445843125Q1577.8219433,283.267467125,1578.9791899,282.127548125Q1580.1364370000001,280.987629125,1581.437467,279.888302125Q1582.738496,278.788977125,1584.180868,277.732303125Q1585.623243,276.675632125,1587.204256,275.663597125Q1588.785271,274.651562125,1590.501957,273.686056125Q1592.218645,272.720553125,1594.067787,271.803392125Q1595.916931,270.886230125,1597.895063,270.019131125Q1599.873199,269.152034125,1601.976616,268.336624125Q1604.080029,267.52121412500003,1606.304779,266.759020825Q1608.529533,265.996828125,1610.871449,265.289281825Q1613.213364,264.581735125,1615.668053,263.930160525Q1618.122749,263.278587325,1620.685608,262.684208425Q1623.248474,262.089829425,1625.914703,261.553759125Q1628.580936,261.017688725,1631.345531,260.540932225Q1634.11013,260.064176125,1636.967911,259.647627625Q1639.825699,259.231079625,1642.771309,258.875520225Q1645.716919,258.519960925,1648.744835,258.226056925Q1651.772751,257.932153125,1654.877289,257.700455905Q1657.981827,257.468758705,1661.157166,257.299702465Q1664.33252,257.130646255,1667.572723,257.024548025Q1670.81293,256.918449782,1674.11189,256.875508416Q1677.41087,256.832567057,1680.76244,256.8528631032Q1684.114,256.873159152,1687.51187,256.956654545Q1690.90976,257.040149955,1694.34757,257.186688185Q1697.78539,257.333226385,1701.25668,257.542532625Q1704.728,257.751838925,1708.22627,258.023520725Q1711.72455,258.295202625,1715.24326,258.628750525Q1718.76198,258.962298825,1722.2945300000001,259.357087825Q1725.82706,259.751876825,1729.36681,260.207166425Q1732.90656,260.662456525,1736.44687,261.177392925Q1739.9871699999999,261.692329425,1743.5213899999999,262.265947325Q1747.52783,262.916206325,1751.51741,263.640390425Q1755.50696,264.364574425,1759.47003,265.160940125Q1763.43307,265.957304925,1767.36011,266.823932625Q1771.28711,267.690559125,1775.16862,268.625362125Q1779.05014,269.56016412500003,1782.87682,270.560889125Q1786.7034800000001,271.561614125,1790.46606,272.625851125Q1794.22865,273.690086125,1797.91811,274.815271125Q1801.60756,275.940456125,1805.215,277.123878125Q1808.82242,278.307300125,1812.33914,279.546108125Q1815.85587,280.784916125,1819.27341,282.076128125Q1822.69095,283.367338125,1826.00104,284.707840125Q1829.31116,286.048340125,1832.50586,287.434902125Q1835.70056,288.821464125,1838.77222,290.250748125Q1841.84381,291.680035125,1844.78494,293.148598125Q1847.72607,294.617161125,1850.5296,296.121467125Q1853.33313,297.62577012500003,1855.99237,299.162189125Q1858.65158,300.698608125,1861.16006,302.26344712499997Q1863.66852,303.828281125,1866.02023,305.417763125Q1868.37192,307.007240125,1870.56116,308.617538125Q1872.75043,310.227833125,1874.77197,311.855064125Q1876.79352,313.482300125,1878.64246,315.122551125Q1880.4913900000001,316.762798125,1882.1633299999999,318.412113125Q1883.83521,320.06142412500003,1885.3260500000001,321.71582812500003Q1886.81686,323.370224125,1888.12302,325.02574112499997Q1889.4292,326.681259125,1890.54755,328.33389312500003Q1891.66589,329.986519125,1892.59375,331.632286125Q1893.52161,333.278053125,1894.25671,334.912994125Q1894.99182,336.547928125,1895.53241,338.16809812500003Q1896.0729999999999,339.788269125,1896.4178200000001,341.389770125Q1896.7626,342.991272125,1896.91077,344.570251125Q1897.0589,346.149223125,1897.0100400000001,347.701866125Q1896.96118,349.254501125,1896.71545,350.777069125Z" fill-rule="evenodd" fill="url(#master_svg6_10_05695)" fill-opacity="1"/><path d="M1892.08621,361.738083125Q1893.93237,359.141063125,1895.09216,356.394943125Q1896.25195,353.648819125,1896.71545,350.777069125Q1896.96118,349.254501125,1897.0100400000001,347.701858125Q1897.0589,346.149223125,1896.91077,344.570251125Q1896.7626,342.991272125,1896.41779,341.389770125Q1896.0729999999999,339.788269125,1895.53241,338.16809812500003Q1894.99182,336.547928125,1894.25671,334.912994125Q1893.52161,333.278061125,1892.59375,331.632294125Q1891.66589,329.986526125,1890.54755,328.33389312500003Q1889.4291699999999,326.681259125,1888.12299,325.02574112499997Q1886.81683,323.370224125,1885.32599,321.71582812500003Q1883.8351400000001,320.061420125,1882.16327,318.41210912500003Q1880.49136,316.762794125,1878.6424299999999,315.122547125Q1876.7934599999999,313.482296125,1874.77194,311.855060125Q1872.7504,310.22782912499997,1870.56116,308.617535125Q1868.37189,307.007240125,1866.02023,305.417763125Q1863.66852,303.828281125,1861.16003,302.263443125Q1858.65155,300.698608125,1855.99234,299.162189125Q1853.33313,297.62577012500003,1850.52957,296.121467125Q1847.7260099999999,294.617164125,1844.78491,293.148601125Q1841.84378,291.680038125,1838.77216,290.250751125Q1835.70053,288.821464125,1832.50583,287.434902125Q1829.31113,286.048340125,1826.00101,284.707838125Q1822.69092,283.367338125,1819.27341,282.076128125Q1815.85587,280.784916125,1812.33916,279.546108125Q1808.82242,278.307300125,1805.215,277.123878125Q1801.60756,275.940456125,1797.91811,274.815271125Q1794.22867,273.690086125,1790.46608,272.625852125Q1786.7034899999999,271.561615125,1782.8768,270.560890125Q1779.05014,269.56016412500003,1775.16862,268.625362125Q1771.28711,267.690559125,1767.36011,266.823932625Q1763.43307,265.957304925,1759.47002,265.160940125Q1755.50696,264.364574425,1751.5174,263.640390425Q1747.52783,262.916206325,1743.5213899999999,262.265947325Q1739.9871699999999,261.692329425,1736.44685,261.177392925Q1732.90656,260.662456525,1729.36681,260.207166425Q1725.82706,259.751876825,1722.2945300000001,259.357088125Q1718.76199,258.962298825,1715.24327,258.628750525Q1711.72458,258.295202625,1708.22629,258.023520825Q1704.728,257.751838925,1701.2567,257.542532625Q1697.78539,257.333226385,1694.34757,257.186688185Q1690.90976,257.040149955,1687.51187,256.956654545Q1684.114,256.873159166,1680.76244,256.852863133Q1677.41087,256.832567099,1674.1119,256.875508472Q1670.81293,256.918449849,1667.572723,257.024548115Q1664.33252,257.130646375,1661.157166,257.299702585Q1657.981827,257.468758825,1654.877289,257.700456025Q1651.772751,257.932153325,1648.744835,258.226057125Q1645.716927,258.519961125,1642.771317,258.875520425Q1639.825706,259.231079625,1636.967918,259.647627825Q1634.110138,260.064176525,1631.345539,260.540932625Q1628.580944,261.017688725,1625.914711,261.553759125Q1623.248482,262.089829425,1620.685619,262.684208425Q1618.122749,263.278587325,1615.668053,263.930160525Q1613.213364,264.581735125,1610.871449,265.289281825Q1608.529533,265.996828125,1606.304783,266.759020825Q1604.080032,267.52121412500003,1601.976618,268.336624125Q1599.873201,269.152034125,1597.895065,270.019131125Q1595.916935,270.886230125,1594.067791,271.803392125Q1592.218647,272.720553125,1590.501959,273.686056125Q1588.785271,274.651562125,1587.204258,275.663597125Q1585.623243,276.675632125,1584.180869,277.732303125Q1582.738497,278.788977125,1581.437467,279.888304125Q1580.1364370000001,280.987629125,1578.9791899,282.127548125Q1577.8219433,283.267467125,1576.8106494,284.445843125Q1575.7993555,285.624216125,1574.9359107,286.838835125Q1573.0897565,289.435848125,1571.9299692,292.181980125Q1570.77018201,294.928108125,1570.3066864,297.799858125Q1570.14495808,298.801903125,1570.068491437,299.817249125Q1569.9920248045,300.832596125,1570.00089970976,301.860184125Q1570.0097746151,302.887771125,1570.10398179,303.926529125Q1570.19818896,304.965286125,1570.37763005,306.014130125Q1570.55707121,307.062973125,1570.82155895,308.120804125Q1571.0860467,309.178635125,1571.4353049,310.244350125Q1571.7845633,311.310070125,1572.2182276,312.382564125Q1572.6518919,313.455055125,1573.1695094,314.533203125Q1573.6871271,315.611351125,1574.2881575,316.694019125Q1574.8891883,317.776695125,1575.5730042,318.862762125Q1576.2568207,319.948841125,1577.0227089,321.03717812499997Q1577.7885971,322.125519125,1578.6357574,323.214981125Q1579.4829178,324.304451125,1580.410467,325.393913125Q1581.338016,326.48336812499997,1582.344984,327.571678125Q1583.351954,328.659988125,1584.437292,329.746025125Q1585.522631,330.832062125,1586.6852039999999,331.914673125Q1587.847778,332.997291125,1589.086372,334.07536312499997Q1590.32497,335.153427125,1591.638294,336.225822125Q1592.951622,337.298233125,1594.338306,338.363846125Q1595.724991,339.429451125,1597.183586,340.48715212499997Q1598.642185,341.544861125,1600.171169,342.593567125Q1601.700153,343.642273125,1603.297928,344.680862125Q1604.89571,345.719467125,1606.560612,346.746887125Q1608.225517,347.774307125,1609.955803,348.789459125Q1611.686096,349.804619125,1613.479965,350.806457125Q1615.273838,351.80829612499997,1617.129417,352.795769125Q1618.985001,353.783249125,1620.900352,354.755340125Q1622.815704,355.72742412499997,1624.788826,356.683098125Q1626.761951,357.63878312500003,1628.790787,358.577053125Q1630.819626,359.515323125,1632.902054,360.435203125Q1634.984489,361.355103125,1637.118347,362.25563312500003Q1639.252197,363.156193125,1641.435249,364.03643312500003Q1641.943375,364.241323125,1642.454086,364.445083125Q1642.252663,363.935853125,1642.056961,363.424383125Q1640.0382,358.148303125,1638.640862,352.67370612499997Q1637.534508,352.088661125,1636.458466,351.49804712499997Q1635.382431,350.907417125,1634.337387,350.311592125Q1633.292336,349.715759125,1632.278938,349.11509712500003Q1631.265541,348.514435125,1630.284443,347.909325125Q1629.303345,347.304214125,1628.355164,346.695053125Q1627.406982,346.085876125,1626.492325,345.473038125Q1625.57766,344.860184125,1624.697098,344.244034125Q1623.816536,343.627899125,1622.970631,343.008858125Q1622.124725,342.389816125,1621.314014,341.768272125Q1620.503304,341.146728125,1619.728298,340.523064125Q1618.953293,339.899399125,1618.214485,339.274017125Q1617.475677,338.64864312500004,1616.773537,338.021942125Q1616.071396,337.39524812499997,1615.406368,336.767624125Q1614.741337,336.13999912500003,1614.113842,335.511841125Q1613.486343,334.883690125,1612.896774,334.255409125Q1612.307205,333.627128125,1611.7559430000001,332.999122125Q1611.204681,332.371109125,1610.692074,331.743767125Q1610.179466,331.116424125,1609.705837,330.490158125Q1609.232208,329.863876125,1608.797855,329.239059125Q1608.363503,328.61424212500003,1607.968704,327.99129512499997Q1607.573906,327.36833912500003,1607.218914,326.747635125Q1606.863922,326.126938125,1606.548958,325.508880125Q1606.233994,324.890823125,1605.959259,324.275802125Q1605.684521,323.66078212499997,1605.450188,323.049194125Q1605.215851,322.437607125,1605.022072,321.829834125Q1604.828289,321.222053125,1604.675182,320.618481125Q1604.522072,320.014908125,1604.409737,319.415913125Q1604.297401,318.816925125,1604.225906,318.222896125Q1604.154411,317.628868125,1604.123806,317.040176125Q1604.093201,316.45148812499997,1604.103504,315.868515125Q1604.1138,315.285538125,1604.165001,314.708641125Q1604.216202,314.131744125,1604.308273,313.561302125Q1604.897305,309.911747125,1607.139801,306.578831125Q1607.753372,305.666901125,1608.488701,304.782940125Q1609.22403,303.898979125,1610.079681,303.044704125Q1610.935333,302.190426125,1611.909653,301.367489125Q1612.883976,300.544556125,1613.975071,299.754562125Q1615.066162,298.964561125,1616.271908,298.209038125Q1617.477657,297.453518125,1618.795723,296.733936125Q1620.113785,296.014351125,1621.541603,295.332104125Q1622.969421,294.649856125,1624.50423,294.006271125Q1626.039032,293.362686125,1627.677837,292.75901012500003Q1629.316647,292.155334125,1631.056282,291.592739125Q1632.795906,291.030144125,1634.63298,290.509724125Q1636.470062,289.989303125,1638.401016,289.512070125Q1640.33197,289.03483612499997,1642.35305,288.601711125Q1644.37413,288.168590125,1646.48143,287.780420125Q1648.588722,287.392250125,1650.778137,287.04978512499997Q1652.967545,286.707321125,1655.234818,286.411228125Q1657.502083,286.115133125,1659.842819,285.865986125Q1662.183556,285.616836125,1664.593216,285.415117125Q1667.002861,285.213398125,1669.476761,285.059498125Q1671.95065,284.905601125,1674.48399,284.799824125Q1677.01732,284.694042125,1679.60517,284.636589125Q1682.19303,284.579136125,1684.83039,284.570120125Q1687.46774,284.561104125,1690.14947,284.600540125Q1692.83119,284.63997812499997,1695.5520999999999,284.727795125Q1698.27299,284.815609125,1701.02777,284.951630125Q1703.78256,285.087650125,1706.56589,285.271616125Q1709.34921,285.455578125,1712.15567,285.687128125Q1714.96213,285.918678125,1717.78629,286.197367125Q1720.61043,286.476051125,1723.44678,286.801334125Q1726.28313,287.126615125,1729.12619,287.497864125Q1731.96924,287.869108125,1734.81346,288.285595125Q1737.65768,288.702083125,1740.49759,289.163010125Q1743.6613,289.676491125,1746.81239,290.243938125Q1749.9635,290.811386125,1753.09438,291.431431125Q1756.22525,292.051475125,1759.32837,292.722626125Q1762.43152,293.393776125,1765.4994,294.114414125Q1768.56731,294.835052125,1771.59258,295.603443125Q1774.61786,296.371834125,1777.59325,297.186127125Q1780.5686,298.000416125,1783.48689,298.858642125Q1786.40518,299.716873125,1789.25937,300.616974125Q1792.11356,301.517074125,1794.89676,302.456882125Q1797.67996,303.396690125,1800.3855,304.373936125Q1803.091,305.351177125,1805.7123,306.363506125Q1808.3336,307.375831125,1810.8644,308.420807125Q1813.39519,309.465782125,1815.82938,310.540886125Q1818.2635500000001,311.615990125,1820.59523,312.718635125Q1822.92691,313.821274125,1825.1505,314.948799125Q1827.37408,316.076321125,1829.4841900000001,317.226013125Q1831.59433,318.375702125,1833.58594,319.544792125Q1835.57751,320.713875125,1837.44577,321.89954412500003Q1839.31403,323.085205125,1841.05441,324.284599125Q1842.7948000000001,325.483993125,1844.4032,326.69421412500003Q1846.0115700000001,327.90443412499997,1847.48404,329.122581125Q1848.9565400000001,330.340721125,1850.28955,331.563850125Q1851.62256,332.78697212500003,1852.8129,334.012131125Q1854.00327,335.237289125,1855.0481,336.461540125Q1856.09293,337.685783125,1856.9896899999999,338.906166125Q1857.88647,340.126556125,1858.63303,341.340141125Q1859.37958,342.553726125,1859.97415,343.75756812500003Q1860.56873,344.961426125,1861.00983,346.152649125Q1861.4509600000001,347.343872125,1861.73758,348.519607125Q1862.02423,349.695335125,1862.15564,350.852737125Q1862.28705,352.010132125,1862.26297,353.146408125Q1862.23886,354.282699125,1862.05933,355.395126125Q1861.47031,359.04467312500003,1859.2278099999999,362.377603125Q1858.63916,363.252543125,1857.93835,364.101763125Q1857.23758,364.950973125,1856.4259299999999,365.772963125Q1855.6143200000001,366.594953125,1854.6933,367.38824312500003Q1853.77225,368.181533125,1852.74344,368.944703125Q1851.71466,369.70788312499997,1850.57999,370.439583125Q1849.44528,371.171283125,1848.2067,371.870183125Q1846.96811,372.569093125,1845.62784,373.233963125Q1844.28757,373.898833125,1842.84799,374.528473125Q1841.40848,375.158123125,1839.87225,375.751423125Q1838.336,376.344723125,1836.70578,376.900613125Q1835.07556,377.456493125,1833.35431,377.973973125Q1831.6330600000001,378.491463125,1829.82382,378.969613125Q1828.01465,379.447773125,1826.12067,379.885753125Q1824.22673,380.323723125,1822.2514,380.720723125Q1820.27609,381.117733125,1818.22296,381.473063125Q1816.16983,381.828383125,1814.04253,382.141393125Q1811.24026,386.40614312499997,1808.00897,390.354023125Q1807.66248,390.777343125,1807.31126,391.196743125Q1807.8596,391.164913125,1808.40585,391.131213125Q1810.33337,391.01223312499997,1812.23387,390.869793125Q1814.1344,390.72735312500004,1816.00656,390.561573125Q1817.87871,390.39576312500003,1819.72119,390.206723125Q1821.56369,390.017673125,1823.37521,389.805513125Q1825.18674,389.59333312499996,1826.966,389.358213125Q1828.7453,389.123073125,1830.49109,388.865173125Q1832.23688,388.60724312499997,1833.94797,388.326693125Q1835.65906,388.04614312499996,1837.33423,387.743193125Q1839.00937,387.440213125,1840.64743,387.11505312500003Q1842.28549,386.789873125,1843.8853100000001,386.442733125Q1845.48511,386.095563125,1847.0455299999999,385.726683125Q1848.6059599999999,385.35778312499997,1850.12595,384.967433125Q1851.64587,384.577063125,1853.1243,384.165493125Q1854.6027199999999,383.753933125,1856.03854,383.321453125Q1857.47437,382.888973125,1858.86661,382.435893125Q1860.25885,381.982823125,1861.60654,381.509453125Q1862.95416,381.03607312500003,1864.25632,380.542743125Q1865.55844,380.049403125,1866.81415,379.536473125Q1868.06982,379.023533125,1869.27823,378.491343125Q1870.4866299999999,377.959153125,1871.64685,377.408093125Q1872.80707,376.857033125,1873.9183,376.287483125Q1875.02954,375.717933125,1876.091,375.130303125Q1877.15247,374.542663125,1878.1634199999999,373.937363125Q1879.17438,373.332063125,1880.13412,372.70952312500003Q1881.09384,372.086963125,1882.00168,371.447603125Q1882.90952,370.808233125,1883.76483,370.152523125Q1884.62012,369.496793125,1885.42227,368.82518312499997Q1886.22443,368.153563125,1886.97287,367.466533125Q1887.72131,366.779483125,1888.41553,366.077503125Q1889.1097399999999,365.375513125,1889.74927,364.659083125Q1890.38876,363.942643125,1890.97311,363.212263125Q1891.55743,362.48188312499997,1892.08621,361.738083125ZM1809.0945,390.28650312499997Q1839.51321,388.340503125,1860.96112,380.887513125Q1882.91492,373.258723125,1891.43417,361.274563125Q1895.02643,356.22132112500003,1895.92569,350.649597125Q1897.78079,339.155662125,1888.3022799999999,326.568329125Q1877.88599,312.735634125,1855.59213,299.854889125Q1810.84976,274.004028125,1743.39323,263.055617825Q1684.59995,253.513275625,1637.083298,260.439264725Q1589.783192,267.333689125,1575.5879474,287.302353125Q1571.9957385,292.355568125,1571.0964658,297.927326125Q1568.4980869,314.026489125,1587.499672,331.578956125Q1606.251427,348.900642125,1641.047409,363.016853125Q1639.245239,358.199123125,1637.954048,353.215073125Q1620.114395,343.733932125,1611.15472,333.526878125Q1601.965176,323.057953125,1603.518494,313.433834125Q1604.135509,309.610882125,1606.476055,306.132240125Q1616.921272,290.607979125,1655.131218,285.617962125Q1693.09891,280.659582125,1740.62575,288.373342125Q1794.14249,297.059280125,1829.8669399999999,316.523517125Q1847.80719,326.298149125,1856.3229099999999,336.740631125Q1864.30139,346.524338125,1862.84912,355.522591125Q1862.2321200000001,359.345533125,1859.89157,362.82419312499997Q1849.94992,377.599963125,1814.5134,382.880393125Q1811.97572,386.712003125,1809.0945,390.28650312499997Z" fill-rule="evenodd" fill="url(#master_svg7_101_60013)" fill-opacity="1"/></g></g><g transform="matrix(0.8660253882408142,-0.4999999701976776,-0.4999999701976776,-0.8660253882408142,328.93996154679917,1227.6207045908086)" style="opacity:0.20000000298023224;"><path d="M66,643.1953125C66,644.8471403,67.3481004,646.1814146,68.9998405,646.1643863L259.00005,644.2056212C259.55395999999996,644.1999106,260,643.7492571,260,643.1953125C260,642.6413679,259.55395999999996,642.1907142,259.00005,642.1850038L68.9998405,640.22623869C67.3481004,640.209210442,66,641.5434847,66,643.1953125Z" fill="url(#master_svg8_101_59816)" fill-opacity="1"/></g><g transform="matrix(0.8660253882408142,-0.4999999701976776,-0.4999999701976776,-0.866025447845459,506.5356761107687,1890.4168109497696)" style="opacity:0.20000000298023224;"><path d="M1742.0478515625,548.338867225C1742.0478515625,549.466183625,1742.9683305025,550.376542525,1744.0955774625,550.364079925L1864.8529315625,549.029030525C1865.2311215625,549.024849425,1865.5355115625,548.717080825,1865.5355115625,548.338867225C1865.5355115625,547.960653525,1865.2311215625,547.652884825,1864.8529315625,547.648703725L1744.0955779625,546.313654538C1742.9683305025,546.301192103,1742.0478515625,547.211550835,1742.0478515625,548.338867225Z" fill="url(#master_svg9_101_59816)" fill-opacity="1"/></g><g transform="matrix(0.8660253882408142,-0.4999999701976776,-0.4999999701976776,-0.8660253882408142,258.09404548825114,963.220110569513)" style="opacity:0.20000000298023224;"><path d="M261.90185546875,448.17897745C261.90185546875,449.37229015,262.87574970875,450.33619595,264.06899906875,450.32389455L401.32888546875,448.90884445C401.72904546875,448.90471915,402.05126546875,448.57915785,402.05126546875,448.17897745C402.05126546875,447.77879715,401.72904546875,447.45323615,401.32888546875,447.44911075L264.06899906875,446.034060435C262.87574970875,446.021758895,261.90185546875,446.98566473,261.90185546875,448.17897745Z" fill="url(#master_svga_101_59756)" fill-opacity="1"/></g><g transform="matrix(0.8660253882408142,-0.4999999701976776,-0.4999999701976776,-0.8660253882408142,391.75429132403224,1462.0469656925561)" style="opacity:0.30000001192092896;"><path d="M251.90185546875,718.17897745C251.90185546875,719.37229015,252.87574970875,720.33619595,254.06899906875,720.32389455L391.32888546875,718.90884445C391.72904546875,718.90471915,392.05126546875,718.57915785,392.05126546875,718.17897745C392.05126546875,717.77879715,391.72904546875,717.45323615,391.32888546875,717.44911075L254.06899906875,716.034060435C252.87574970875,716.021758895,251.90185546875,716.98566473,251.90185546875,718.17897745Z" fill="url(#master_svgb_101_59756)" fill-opacity="1"/></g><g transform="matrix(0.8660253882408142,-0.4999999701976776,-0.4999999701976776,-0.8660253882408142,554.8948371054139,2070.8956488068216)" style="opacity:0.30000001192092896;"><path d="M1607,682.1953125C1607,683.8471403,1608.3481004,685.1814146,1609.9998405,685.1643863L1800.00005,683.2056212C1800.55396,683.1999106,1801,682.7492571,1801,682.1953125C1801,681.6413679,1800.55396,681.1907142,1800.00005,681.1850038L1609.9998405,679.22623869C1608.3481004,679.209210442,1607,680.5434847,1607,682.1953125Z" fill="url(#master_svgc_101_59756)" fill-opacity="1"/></g></g></g></svg>