<svg width="40" height="40" viewBox="0 0 40 40" fill="none" xmlns="http://www.w3.org/2000/svg">
<path d="M20 40C31.0457 40 40 31.0457 40 20C40 8.95431 31.0457 0 20 0C8.95431 0 0 8.95431 0 20C0 31.0457 8.95431 40 20 40Z" fill="#EED94C"/>
<path d="M14.3174 11.6532C13.9253 11.6966 13.0539 11.8701 12.7489 11.9569C10.3526 12.6944 5.7779 14.7334 5.38579 20.5034C5.38579 20.5034 5.5165 24.0175 9.30698 25.0153C9.30698 25.0153 6.95427 20.9372 11.0933 18.1173C11.0933 18.1173 11.3547 20.5902 12.7053 21.1975C12.7053 21.1975 12.7489 17.6835 14.3609 16.4254C14.3609 16.4254 13.8817 18.4644 15.5373 18.8548C17.1929 19.2453 20.6348 18.4644 22.1162 15.6445C23.5104 13.0848 17.3236 11.2628 14.3174 11.6532Z" fill="#0E123A"/>
<path d="M10.919 11.2194C3.51233 10.6988 1.29032 15.9048 1.29032 15.9048C3.86087 14.9504 4.90653 16.5989 4.90653 16.5989C6.60571 13.0415 10.919 11.2194 10.919 11.2194Z" fill="#0E123A"/>
<path d="M12.8796 25.9698C8.47916 27.7051 5.21151 23.3668 5.21151 23.3668C5.21151 23.3668 6.475 31.9567 15.9294 31.8265C15.9294 31.8265 14.4916 30.1346 14.2738 29.8309C14.0124 29.4404 12.8796 29.2669 12.8796 29.2669C12.8796 29.2669 13.9253 29.1368 14.4045 27.7051C14.8838 26.2735 17.4543 25.9698 18.8485 26.447C18.8921 26.4904 17.28 24.2344 12.8796 25.9698Z" fill="#0E123A"/>
<path d="M31.7636 11.5651C30.2043 11.5651 28.8183 12.0945 27.7355 13.2414C27.9088 12.4033 27.4756 11.918 26.6094 11.918H23.3176C23.2743 11.918 23.231 11.918 23.1877 11.918C23.5342 12.2268 23.8807 12.5797 24.0972 12.9768C24.7469 14.0796 24.7903 15.3589 24.2272 16.4617C23.4043 18.0939 22.1049 19.1968 20.6756 19.9467L19.6794 25.108C19.5061 25.9462 19.9392 26.4755 20.7622 26.4755H24.0539C24.7903 26.4755 25.2234 26.0785 25.3533 25.3727L26.6094 18.7115C26.9126 17.1234 27.6489 16.6382 28.3852 16.6382C29.4247 16.6382 29.7712 17.2999 29.5113 18.4027L28.2553 25.108C28.082 25.9462 28.5151 26.4755 29.3381 26.4755H32.6298C33.3662 26.4755 33.7993 26.0785 33.9292 25.3727L35.5318 17.0793C36.2681 13.8149 34.4923 11.5651 31.7636 11.5651Z" fill="#0E123A"/>
</svg>
