<svg width="130" height="48" viewBox="0 0 130 48" fill="none" xmlns="http://www.w3.org/2000/svg">
<path d="M18.7229 13.1269C18.1594 13.1893 16.907 13.4387 16.4687 13.5634C13.0247 14.6234 6.44971 17.5539 5.88615 25.8468C5.88615 25.8468 6.07401 30.8973 11.5218 32.3314C11.5218 32.3314 8.14042 26.4703 14.0892 22.4174C14.0892 22.4174 14.4649 25.9715 16.4061 26.8444C16.4061 26.8444 16.4687 21.7939 18.7856 19.9857C18.7856 19.9857 18.0968 22.9162 20.4763 23.4774C22.8558 24.0386 27.8026 22.9162 29.9316 18.8633C31.9354 15.1846 23.0436 12.5658 18.7229 13.1269Z" fill="#EED94C"/>
<path d="M13.8387 12.5034C3.19354 11.7552 0 19.2374 0 19.2374C3.69449 17.8657 5.19734 20.2351 5.19734 20.2351C7.63946 15.1222 13.8387 12.5034 13.8387 12.5034Z" fill="#EED94C"/>
<path d="M16.6565 33.7032C10.332 36.1973 5.63566 29.962 5.63566 29.962C5.63566 29.962 7.45159 42.3077 21.0398 42.1207C21.0398 42.1207 18.9734 39.689 18.6603 39.2525C18.2846 38.6913 16.6565 38.4419 16.6565 38.4419C16.6565 38.4419 18.1594 38.2549 18.8482 36.1972C19.537 34.1396 23.2315 33.7032 25.2352 34.3891C25.2979 34.4514 22.981 31.2091 16.6565 33.7032Z" fill="#EED94C"/>
<path d="M65.8277 15.418H70.0038C71.0478 15.418 71.5973 16.0224 71.3775 17.1214L68.4652 32.2321C68.3004 33.1662 67.7509 33.6058 66.8168 33.6058H62.6408C61.5967 33.6058 61.0473 33.0013 61.2121 31.9573C59.7835 33.386 58.0801 34.0453 56.1019 34.0453C52.6402 34.0453 50.3873 31.2979 51.2116 27.2318L53.2446 16.9016C53.4095 15.9674 53.959 15.5279 54.8931 15.5279H59.0691C60.1131 15.5279 60.6626 16.1323 60.4428 17.2313L58.7944 25.5834C58.5197 26.9571 58.9592 27.7813 60.278 27.7813C61.2671 27.7813 62.1462 27.1768 62.5309 25.1987L64.1793 16.9016C64.3441 15.9125 64.8936 15.418 65.8277 15.418Z" fill="white"/>
<path d="M78.3559 8H82.5319C83.5759 8 84.1254 8.60443 83.9056 9.70339L79.5648 32.2321C79.3999 33.1662 78.8504 33.6058 77.9163 33.6058H73.7403C72.6962 33.6058 72.1468 33.0013 72.3666 31.9024L76.7074 9.3737C76.8723 8.49454 77.4218 8 78.3559 8Z" fill="white"/>
<path d="M89.2905 8H93.4666C94.5106 8 95.0601 8.60443 94.8403 9.70339L90.4994 32.2321C90.3346 33.1662 89.7851 33.6058 88.851 33.6058H84.6199C83.5759 33.6058 83.0265 33.0013 83.2463 31.9024L87.5871 9.3737C87.8069 8.49454 88.3564 8 89.2905 8Z" fill="white"/>
<path d="M104.841 28.9352C106.544 28.9352 108.028 28.6604 109.456 27.9461C110.391 27.5066 111.05 27.6714 111.544 28.5506L111.819 29.1C112.259 29.9243 112.149 30.6386 111.435 31.243C109.292 32.8915 106.764 33.9904 103.577 33.9904C97.1481 33.9904 93.6314 29.8693 94.6754 24.4844C95.7194 19.0995 100.94 14.9784 106.654 14.9784C112.204 14.9784 115.611 19.0445 114.622 24.2097C114.567 24.4844 114.457 24.8141 114.402 25.1438C114.127 25.968 113.468 26.2977 112.643 26.2977H101.599C101.544 28.111 102.533 28.9352 104.841 28.9352ZM102.313 22.5063H107.698C107.753 20.8029 107.094 20.0336 105.5 20.0336C103.962 20.0336 102.973 20.8029 102.313 22.5063Z" fill="white"/>
<path d="M125.996 27.7813H126.38C127.479 27.7813 128.029 28.3308 127.809 29.3748L127.315 31.9024C127.15 32.7266 126.765 33.2761 125.996 33.4959C124.952 33.8256 123.798 33.9904 122.644 33.9904C118.853 33.9904 116.6 31.243 117.314 27.5615L118.468 21.6271H117.589C116.545 21.6271 115.995 21.0227 116.215 19.9237L116.82 16.7368C116.984 15.8026 117.534 15.3631 118.468 15.3631H119.677L120.281 12.0662C120.446 11.1321 120.996 10.6925 121.875 10.6375L126.161 10.3078C127.26 10.1979 127.809 10.8024 127.589 11.9013L126.93 15.363H128.578C129.622 15.363 130.172 15.9675 129.952 17.0664L129.348 20.2534C129.183 21.1875 128.633 21.6271 127.699 21.6271H125.721L124.787 26.4076C124.677 27.2868 125.117 27.7813 125.996 27.7813Z" fill="white"/>
<path d="M43.7972 13.0002C41.5562 13.0002 39.5642 13.7611 38.0079 15.4095C38.2569 14.2049 37.6344 13.5075 36.3894 13.5075H31.6584C31.5961 13.5075 31.5339 13.5075 31.4716 13.5075C31.9696 13.9513 32.4676 14.4585 32.7789 15.0291C33.7126 16.6141 33.7749 18.4528 32.9656 20.0378C31.7829 22.3837 29.9154 23.9687 27.8611 25.0465L26.4294 32.4645C26.1804 33.6691 26.8029 34.43 27.9856 34.43H32.7166C33.7749 34.43 34.3974 33.8594 34.5842 32.8449L36.3894 23.2713C36.8252 20.9888 37.8834 20.2914 38.9417 20.2914C40.4357 20.2914 40.9337 21.2424 40.5602 22.8275L38.7549 32.4645C38.5059 33.6691 39.1284 34.43 40.3112 34.43H45.0422C46.1005 34.43 46.723 33.8594 46.9097 32.8449L49.213 20.9255C50.2712 16.2337 47.719 13.0002 43.7972 13.0002Z" fill="white"/>
</svg>
